<svg width="24" height="24" viewBox="0 0 24 24" fill="none" xmlns="http://www.w3.org/2000/svg">
<mask id="mask0_45_29959" style="mask-type:alpha" maskUnits="userSpaceOnUse" x="0" y="0" width="24" height="24">
<rect width="24" height="24" fill="#D9D9D9"/>
</mask>
<g mask="url(#mask0_45_29959)">
<path fill-rule="evenodd" clip-rule="evenodd" d="M7.58749 16.4125C7.97916 16.8042 8.44999 17 8.99999 17H20C20.55 17 21.0208 16.8042 21.4125 16.4125C21.8042 16.0208 22 15.55 22 15L22 11V4C22 2.89543 21.1046 2 20 2H14.875H12H8.99999C8.44999 2 7.97916 2.19583 7.58749 2.5875C7.19582 2.97917 6.99999 3.45 6.99999 4V15C6.99999 15.55 7.19582 16.0208 7.58749 16.4125ZM12 4H8.99999V14.2C9.74999 13.5 10.5958 12.9583 11.5375 12.575C12.4792 12.1917 13.4667 12 14.5 12C15.5167 12 16.5 12.1917 17.45 12.575C18.4 12.9583 19.25 13.5 20 14.2V9.5L20 4H14.5H12ZM4.13749 21.575C4.56249 21.9083 5.04999 22.0417 5.59999 21.975L16.525 20.625C16.975 20.5583 17.375 20.3792 17.725 20.0875C18.075 19.7958 18.25 19.4333 18.25 19H12.8L5.34999 20L3.99999 9.075L4.99999 8.95V6.95L3.74999 7.1C3.19999 7.16667 2.74999 7.41667 2.39999 7.85C2.04999 8.28333 1.91666 8.775 1.99999 9.325L3.37499 20.25C3.45832 20.8 3.71249 21.2417 4.13749 21.575ZM12.775 14.25C13.3417 14.0833 13.9167 14 14.5 14C15.0833 14 15.6583 14.0833 16.225 14.25C16.7917 14.4167 17.3167 14.6667 17.8 15H11.2C11.6833 14.6667 12.2083 14.4167 12.775 14.25ZM16.45 6.3C15.9167 5.76667 15.2667 5.5 14.5 5.5C13.7333 5.5 13.0833 5.76667 12.55 6.3C12.0167 6.83333 11.75 7.48333 11.75 8.25C11.75 9.01667 12.0167 9.66667 12.55 10.2C13.0833 10.7333 13.7333 11 14.5 11C15.2667 11 15.9167 10.7333 16.45 10.2C16.9833 9.66667 17.25 9.01667 17.25 8.25C17.25 7.48333 16.9833 6.83333 16.45 6.3ZM13.9625 7.7125C14.1042 7.57083 14.2833 7.5 14.5 7.5C14.7167 7.5 14.8958 7.57083 15.0375 7.7125C15.1792 7.85417 15.25 8.03333 15.25 8.25C15.25 8.46667 15.1792 8.64583 15.0375 8.7875C14.8958 8.92917 14.7167 9 14.5 9C14.2833 9 14.1042 8.92917 13.9625 8.7875C13.8208 8.64583 13.75 8.46667 13.75 8.25C13.75 8.03333 13.8208 7.85417 13.9625 7.7125Z" fill="#262626"/>
</g>
</svg>
